<svg xmlns="http://www.w3.org/2000/svg" id="export" class="canvas" preserveAspectRatio="xMidYMid meet" style="position: absolute; margin: 0px;" width="163" height="798"><rect id="background" fill="#fff" pointer-events="all" width="163" height="798"/><g id="origin" transform="translate(7.3929687500000005, 7.3929687500000005) scale(1)"><g id="clusters" class="clusters"><g class="cluster" transform="translate(73.9296875,423)"><rect x="-73.9296875" y="-317" width="147.859375" height="634" rx="5" ry="5" style="stroke: rgb(0, 0, 0); fill: rgb(0, 0, 0); fill-opacity: 0.02; stroke-opacity: 0.06; stroke-width: 1px;"/></g></g><g id="edge-paths" class="edge-paths"><defs><marker id="arrowhead-vee" viewBox="0 0 10 10" refX="9" refY="5" markerUnits="strokeWidth" markerWidth="8" markerHeight="6" orient="auto" style="fill: rgb(0, 0, 0);"><path d="M 0 0 L 10 5 L 0 10 L 4 5 z" style="stroke-width: 1; stroke-dasharray: 1, 0;"/></marker></defs><path class="edge-path" d="M73.9296875,23L73.9296875,24.666666666666668C73.9296875,26.333333333333332,73.9296875,29.666666666666668,73.9296875,33C73.9296875,36.333333333333336,73.9296875,39.666666666666664,73.9296875,41.333333333333336L73.9296875,43" marker-end="url(#arrowhead-vee)" id="edge-data" style="stroke: rgb(0, 0, 0); stroke-width: 1px; fill: none;"/><path class="edge-path" d="M73.9296875,86L73.9296875,87.66666666666667C73.9296875,89.33333333333333,73.9296875,92.66666666666667,73.9296875,96C73.9296875,99.33333333333333,73.9296875,102.66666666666667,73.9296875,106C73.9296875,109.33333333333333,73.9296875,112.66666666666667,73.9296875,114.33333333333333L73.9296875,116" marker-end="url(#arrowhead-vee)" id="edge-label_emb" style="stroke: rgb(0, 0, 0); stroke-width: 1px; fill: none;"/><path class="edge-path" d="M73.9296875,173L73.9296875,174.66666666666666C73.9296875,176.33333333333334,73.9296875,179.66666666666666,73.9296875,183C73.9296875,186.33333333333334,73.9296875,189.66666666666666,73.9296875,191.33333333333334L73.9296875,193" marker-end="url(#arrowhead-vee)" id="edge-model/0" style="stroke: rgb(0, 0, 0); stroke-width: 1px; fill: none;"/><path class="edge-path" d="M73.9296875,216L73.9296875,217.66666666666666C73.9296875,219.33333333333334,73.9296875,222.66666666666666,73.9296875,226C73.9296875,229.33333333333334,73.9296875,232.66666666666666,73.9296875,234.33333333333334L73.9296875,236" marker-end="url(#arrowhead-vee)" id="edge-model/1" style="stroke: rgb(0, 0, 0); stroke-width: 1px; fill: none;"/><path class="edge-path" d="M73.9296875,293L73.9296875,294.6666666666667C73.9296875,296.3333333333333,73.9296875,299.6666666666667,73.9296875,303C73.9296875,306.3333333333333,73.9296875,309.6666666666667,73.9296875,311.3333333333333L73.9296875,313" marker-end="url(#arrowhead-vee)" id="edge-model/2" style="stroke: rgb(0, 0, 0); stroke-width: 1px; fill: none;"/><path class="edge-path" d="M73.9296875,370L73.9296875,371.6666666666667C73.9296875,373.3333333333333,73.9296875,376.6666666666667,73.9296875,380C73.9296875,383.3333333333333,73.9296875,386.6666666666667,73.9296875,388.3333333333333L73.9296875,390" marker-end="url(#arrowhead-vee)" id="edge-model/3" style="stroke: rgb(0, 0, 0); stroke-width: 1px; fill: none;"/><path class="edge-path" d="M73.9296875,413L73.9296875,414.6666666666667C73.9296875,416.3333333333333,73.9296875,419.6666666666667,73.9296875,423C73.9296875,426.3333333333333,73.9296875,429.6666666666667,73.9296875,431.3333333333333L73.9296875,433" marker-end="url(#arrowhead-vee)" id="edge-model/4" style="stroke: rgb(0, 0, 0); stroke-width: 1px; fill: none;"/><path class="edge-path" d="M73.9296875,490L73.9296875,491.6666666666667C73.9296875,493.3333333333333,73.9296875,496.6666666666667,73.9296875,500C73.9296875,503.3333333333333,73.9296875,506.6666666666667,73.9296875,508.3333333333333L73.9296875,510" marker-end="url(#arrowhead-vee)" id="edge-model/5" style="stroke: rgb(0, 0, 0); stroke-width: 1px; fill: none;"/><path class="edge-path" d="M73.9296875,567L73.9296875,568.6666666666666C73.9296875,570.3333333333334,73.9296875,573.6666666666666,73.9296875,577C73.9296875,580.3333333333334,73.9296875,583.6666666666666,73.9296875,585.3333333333334L73.9296875,587" marker-end="url(#arrowhead-vee)" id="edge-model/6" style="stroke: rgb(0, 0, 0); stroke-width: 1px; fill: none;"/><path class="edge-path" d="M73.9296875,610L73.9296875,611.6666666666666C73.9296875,613.3333333333334,73.9296875,616.6666666666666,73.9296875,620C73.9296875,623.3333333333334,73.9296875,626.6666666666666,73.9296875,628.3333333333334L73.9296875,630" marker-end="url(#arrowhead-vee)" id="edge-model/7" style="stroke: rgb(0, 0, 0); stroke-width: 1px; fill: none;"/><path class="edge-path" d="M73.9296875,687L73.9296875,688.6666666666666C73.9296875,690.3333333333334,73.9296875,693.6666666666666,73.9296875,697C73.9296875,700.3333333333334,73.9296875,703.6666666666666,73.9296875,705.3333333333334L73.9296875,707" marker-end="url(#arrowhead-vee)" id="edge-model/8" style="stroke: rgb(0, 0, 0); stroke-width: 1px; fill: none;"/><path class="edge-path" d="M73.9296875,730L73.9296875,731.6666666666666C73.9296875,733.3333333333334,73.9296875,736.6666666666666,73.9296875,740C73.9296875,743.3333333333334,73.9296875,746.6666666666666,73.9296875,750C73.9296875,753.3333333333334,73.9296875,756.6666666666666,73.9296875,758.3333333333334L73.9296875,760" marker-end="url(#arrowhead-vee)" id="edge-model/9" style="stroke: rgb(0, 0, 0); stroke-width: 1px; fill: none;"/></g><g id="edge-labels" class="edge-labels"/><g id="nodes" class="nodes"><g id="node-label_emb" class="node" transform="translate(73.9296875,64.5)" style="opacity: 1;"><g transform="translate(-50,-21.5)"><g><g class="node-item node-item-type node-item-type-transform" transform="translate(0,0)"><path d="M5,0h73.46875a0,0 0 0 1 0,0v23a0,0 0 0 1 0,0h-78.46875a0,0 0 0 1 0,0v-18a5,5 0 0 1 5,-5z" style="stroke: rgb(0, 0, 0); fill: rgb(51, 85, 68); stroke-width: 0;"/><text x="6" y="16" style="font-family: -apple-system, BlinkMacSystemFont, &quot;Segoe WPC&quot;, &quot;Segoe UI&quot;, Ubuntu, &quot;Droid Sans&quot;, sans-serif, &quot;PingFang SC&quot;; font-size: 11px; text-rendering: geometricprecision; fill: rgb(255, 255, 255);">Embedding</text><title>label_emb</title></g><g class="node-item node-item-function" transform="translate(78.46875,0)"><path d="M0,0h16.53125a5,5 0 0 1 5,5v18a0,0 0 0 1 0,0h-21.53125a0,0 0 0 1 0,0v-23a0,0 0 0 1 0,0z" style="stroke: rgb(0, 0, 0); fill: rgb(255, 255, 255); stroke-width: 0;"/><text x="6" y="16" style="font-family: -apple-system, BlinkMacSystemFont, &quot;Segoe WPC&quot;, &quot;Segoe UI&quot;, Ubuntu, &quot;Droid Sans&quot;, sans-serif, &quot;PingFang SC&quot;; font-size: 11px; text-rendering: geometricprecision; fill: rgb(0, 0, 0);">+</text></g><g class="node-attribute" transform="translate(0,23)"><path d="M0,0h100a0,0 0 0 1 0,0v15a5,5 0 0 1 -5,5h-90a5,5 0 0 1 -5,-5v-15a0,0 0 0 1 0,0z" style="stroke: rgb(0, 0, 0); fill: rgb(255, 255, 255); stroke-width: 0;"/><text id="initializer-" xml:space="preserve" x="6" y="14" style="font-family: -apple-system, BlinkMacSystemFont, &quot;Segoe WPC&quot;, &quot;Segoe UI&quot;, Ubuntu, &quot;Droid Sans&quot;, sans-serif, &quot;PingFang SC&quot;; font-size: 9px; font-weight: normal; text-rendering: geometricprecision;"><title>float32[10,10]</title><tspan style="font-weight: bold;">weight</tspan><tspan>〈10×10〉</tspan></text><line class="node" x1="0" x2="100" y1="0" y2="0" style="stroke: rgb(51, 51, 51); fill: none; stroke-width: 1px;"/></g><line class="node" x1="78.46875" x2="78.46875" y1="0" y2="23" style="stroke: rgb(51, 51, 51); fill: none; stroke-width: 1px;"/><path class="node border" d="M5,0h90a5,5 0 0 1 5,5v33a5,5 0 0 1 -5,5h-90a5,5 0 0 1 -5,-5v-33a5,5 0 0 1 5,-5z" style="stroke: rgb(51, 51, 51); fill: none; stroke-width: 1px;"/></g></g></g><g id="node-model/0" class="node" transform="translate(73.9296875,144.5)" style="opacity: 1;"><g transform="translate(-50,-28.5)"><g><g class="node-item node-item-type node-item-type-layer" transform="translate(0,0)"><path d="M5,0h73.46875a0,0 0 0 1 0,0v23a0,0 0 0 1 0,0h-78.46875a0,0 0 0 1 0,0v-18a5,5 0 0 1 5,-5z" style="stroke: rgb(0, 0, 0); fill: rgb(51, 85, 136); stroke-width: 0;"/><text x="6" y="16" style="font-family: -apple-system, BlinkMacSystemFont, &quot;Segoe WPC&quot;, &quot;Segoe UI&quot;, Ubuntu, &quot;Droid Sans&quot;, sans-serif, &quot;PingFang SC&quot;; font-size: 11px; text-rendering: geometricprecision; fill: rgb(255, 255, 255);">Linear</text><title>model/0</title></g><g class="node-item node-item-function" transform="translate(78.46875,0)"><path d="M0,0h16.53125a5,5 0 0 1 5,5v18a0,0 0 0 1 0,0h-21.53125a0,0 0 0 1 0,0v-23a0,0 0 0 1 0,0z" style="stroke: rgb(0, 0, 0); fill: rgb(255, 255, 255); stroke-width: 0;"/><text x="6" y="16" style="font-family: -apple-system, BlinkMacSystemFont, &quot;Segoe WPC&quot;, &quot;Segoe UI&quot;, Ubuntu, &quot;Droid Sans&quot;, sans-serif, &quot;PingFang SC&quot;; font-size: 11px; text-rendering: geometricprecision; fill: rgb(0, 0, 0);">+</text></g><g class="node-attribute" transform="translate(0,23)"><path d="M0,0h100a0,0 0 0 1 0,0v29a5,5 0 0 1 -5,5h-90a5,5 0 0 1 -5,-5v-29a0,0 0 0 1 0,0z" style="stroke: rgb(0, 0, 0); fill: rgb(255, 255, 255); stroke-width: 0;"/><text id="initializer-" xml:space="preserve" x="6" y="14" style="font-family: -apple-system, BlinkMacSystemFont, &quot;Segoe WPC&quot;, &quot;Segoe UI&quot;, Ubuntu, &quot;Droid Sans&quot;, sans-serif, &quot;PingFang SC&quot;; font-size: 9px; font-weight: normal; text-rendering: geometricprecision;"><title>float32[128,110]</title><tspan style="font-weight: bold;">weight</tspan><tspan>〈128×110〉</tspan></text><text id="initializer-" xml:space="preserve" x="6" y="28" style="font-family: -apple-system, BlinkMacSystemFont, &quot;Segoe WPC&quot;, &quot;Segoe UI&quot;, Ubuntu, &quot;Droid Sans&quot;, sans-serif, &quot;PingFang SC&quot;; font-size: 9px; font-weight: normal; text-rendering: geometricprecision;"><title>float32[128]</title><tspan style="font-weight: bold;">bias</tspan><tspan>〈128〉</tspan></text><line class="node" x1="0" x2="100" y1="0" y2="0" style="stroke: rgb(51, 51, 51); fill: none; stroke-width: 1px;"/></g><line class="node" x1="78.46875" x2="78.46875" y1="0" y2="23" style="stroke: rgb(51, 51, 51); fill: none; stroke-width: 1px;"/><path class="node border" d="M5,0h90a5,5 0 0 1 5,5v47a5,5 0 0 1 -5,5h-90a5,5 0 0 1 -5,-5v-47a5,5 0 0 1 5,-5z" style="stroke: rgb(51, 51, 51); fill: none; stroke-width: 1px;"/></g></g></g><g id="node-model/1" class="node" transform="translate(73.9296875,204.5)" style="opacity: 1;"><g transform="translate(-43.6953125,-11.5)"><g><g class="node-item node-item-type node-item-type-activation" transform="translate(0,0)"><path d="M5,0h60.859375a0,0 0 0 1 0,0v23a0,0 0 0 1 0,0h-60.859375a5,5 0 0 1 -5,-5v-13a5,5 0 0 1 5,-5z" style="stroke: rgb(0, 0, 0); fill: rgb(75, 27, 22); stroke-width: 0;"/><text x="6" y="16" style="font-family: -apple-system, BlinkMacSystemFont, &quot;Segoe WPC&quot;, &quot;Segoe UI&quot;, Ubuntu, &quot;Droid Sans&quot;, sans-serif, &quot;PingFang SC&quot;; font-size: 11px; text-rendering: geometricprecision; fill: rgb(255, 255, 255);">LeakyReLU</text><title>model/1</title></g><g class="node-item node-item-function" transform="translate(65.859375,0)"><path d="M0,0h16.53125a5,5 0 0 1 5,5v13a5,5 0 0 1 -5,5h-16.53125a0,0 0 0 1 0,0v-23a0,0 0 0 1 0,0z" style="stroke: rgb(0, 0, 0); fill: rgb(255, 255, 255); stroke-width: 0;"/><text x="6" y="16" style="font-family: -apple-system, BlinkMacSystemFont, &quot;Segoe WPC&quot;, &quot;Segoe UI&quot;, Ubuntu, &quot;Droid Sans&quot;, sans-serif, &quot;PingFang SC&quot;; font-size: 11px; text-rendering: geometricprecision; fill: rgb(0, 0, 0);">+</text></g><line class="node" x1="65.859375" x2="65.859375" y1="0" y2="23" style="stroke: rgb(51, 51, 51); fill: none; stroke-width: 1px;"/><path class="node border" d="M5,0h77.390625a5,5 0 0 1 5,5v13a5,5 0 0 1 -5,5h-77.390625a5,5 0 0 1 -5,-5v-13a5,5 0 0 1 5,-5z" style="stroke: rgb(51, 51, 51); fill: none; stroke-width: 1px;"/></g></g></g><g id="node-model/2" class="node" transform="translate(73.9296875,264.5)" style="opacity: 1;"><g transform="translate(-50,-28.5)"><g><g class="node-item node-item-type node-item-type-layer" transform="translate(0,0)"><path d="M5,0h73.46875a0,0 0 0 1 0,0v23a0,0 0 0 1 0,0h-78.46875a0,0 0 0 1 0,0v-18a5,5 0 0 1 5,-5z" style="stroke: rgb(0, 0, 0); fill: rgb(51, 85, 136); stroke-width: 0;"/><text x="6" y="16" style="font-family: -apple-system, BlinkMacSystemFont, &quot;Segoe WPC&quot;, &quot;Segoe UI&quot;, Ubuntu, &quot;Droid Sans&quot;, sans-serif, &quot;PingFang SC&quot;; font-size: 11px; text-rendering: geometricprecision; fill: rgb(255, 255, 255);">Linear</text><title>model/2</title></g><g class="node-item node-item-function" transform="translate(78.46875,0)"><path d="M0,0h16.53125a5,5 0 0 1 5,5v18a0,0 0 0 1 0,0h-21.53125a0,0 0 0 1 0,0v-23a0,0 0 0 1 0,0z" style="stroke: rgb(0, 0, 0); fill: rgb(255, 255, 255); stroke-width: 0;"/><text x="6" y="16" style="font-family: -apple-system, BlinkMacSystemFont, &quot;Segoe WPC&quot;, &quot;Segoe UI&quot;, Ubuntu, &quot;Droid Sans&quot;, sans-serif, &quot;PingFang SC&quot;; font-size: 11px; text-rendering: geometricprecision; fill: rgb(0, 0, 0);">+</text></g><g class="node-attribute" transform="translate(0,23)"><path d="M0,0h100a0,0 0 0 1 0,0v29a5,5 0 0 1 -5,5h-90a5,5 0 0 1 -5,-5v-29a0,0 0 0 1 0,0z" style="stroke: rgb(0, 0, 0); fill: rgb(255, 255, 255); stroke-width: 0;"/><text id="initializer-" xml:space="preserve" x="6" y="14" style="font-family: -apple-system, BlinkMacSystemFont, &quot;Segoe WPC&quot;, &quot;Segoe UI&quot;, Ubuntu, &quot;Droid Sans&quot;, sans-serif, &quot;PingFang SC&quot;; font-size: 9px; font-weight: normal; text-rendering: geometricprecision;"><title>float32[256,128]</title><tspan style="font-weight: bold;">weight</tspan><tspan>〈256×128〉</tspan></text><text id="initializer-" xml:space="preserve" x="6" y="28" style="font-family: -apple-system, BlinkMacSystemFont, &quot;Segoe WPC&quot;, &quot;Segoe UI&quot;, Ubuntu, &quot;Droid Sans&quot;, sans-serif, &quot;PingFang SC&quot;; font-size: 9px; font-weight: normal; text-rendering: geometricprecision;"><title>float32[256]</title><tspan style="font-weight: bold;">bias</tspan><tspan>〈256〉</tspan></text><line class="node" x1="0" x2="100" y1="0" y2="0" style="stroke: rgb(51, 51, 51); fill: none; stroke-width: 1px;"/></g><line class="node" x1="78.46875" x2="78.46875" y1="0" y2="23" style="stroke: rgb(51, 51, 51); fill: none; stroke-width: 1px;"/><path class="node border" d="M5,0h90a5,5 0 0 1 5,5v47a5,5 0 0 1 -5,5h-90a5,5 0 0 1 -5,-5v-47a5,5 0 0 1 5,-5z" style="stroke: rgb(51, 51, 51); fill: none; stroke-width: 1px;"/></g></g></g><g id="node-model/3" class="node" transform="translate(73.9296875,341.5)" style="opacity: 1;"><g transform="translate(-51.4296875,-28.5)"><g><g class="node-item node-item-type node-item-type-normalization" transform="translate(0,0)"><path d="M5,0h76.328125a0,0 0 0 1 0,0v23a0,0 0 0 1 0,0h-81.328125a0,0 0 0 1 0,0v-18a5,5 0 0 1 5,-5z" style="stroke: rgb(0, 0, 0); fill: rgb(51, 85, 68); stroke-width: 0;"/><text x="6" y="16" style="font-family: -apple-system, BlinkMacSystemFont, &quot;Segoe WPC&quot;, &quot;Segoe UI&quot;, Ubuntu, &quot;Droid Sans&quot;, sans-serif, &quot;PingFang SC&quot;; font-size: 11px; text-rendering: geometricprecision; fill: rgb(255, 255, 255);">BatchNorm1d</text><title>model/3</title></g><g class="node-item node-item-function" transform="translate(81.328125,0)"><path d="M0,0h16.53125a5,5 0 0 1 5,5v18a0,0 0 0 1 0,0h-21.53125a0,0 0 0 1 0,0v-23a0,0 0 0 1 0,0z" style="stroke: rgb(0, 0, 0); fill: rgb(255, 255, 255); stroke-width: 0;"/><text x="6" y="16" style="font-family: -apple-system, BlinkMacSystemFont, &quot;Segoe WPC&quot;, &quot;Segoe UI&quot;, Ubuntu, &quot;Droid Sans&quot;, sans-serif, &quot;PingFang SC&quot;; font-size: 11px; text-rendering: geometricprecision; fill: rgb(0, 0, 0);">+</text></g><g class="node-attribute" transform="translate(0,23)"><path d="M0,0h102.859375a0,0 0 0 1 0,0v29a5,5 0 0 1 -5,5h-92.859375a5,5 0 0 1 -5,-5v-29a0,0 0 0 1 0,0z" style="stroke: rgb(0, 0, 0); fill: rgb(255, 255, 255); stroke-width: 0;"/><text id="initializer-" xml:space="preserve" x="6" y="14" style="font-family: -apple-system, BlinkMacSystemFont, &quot;Segoe WPC&quot;, &quot;Segoe UI&quot;, Ubuntu, &quot;Droid Sans&quot;, sans-serif, &quot;PingFang SC&quot;; font-size: 9px; font-weight: normal; text-rendering: geometricprecision;"><title>float32[256]</title><tspan style="font-weight: bold;">weight</tspan><tspan>〈256〉</tspan></text><text id="initializer-" xml:space="preserve" x="6" y="28" style="font-family: -apple-system, BlinkMacSystemFont, &quot;Segoe WPC&quot;, &quot;Segoe UI&quot;, Ubuntu, &quot;Droid Sans&quot;, sans-serif, &quot;PingFang SC&quot;; font-size: 9px; font-weight: normal; text-rendering: geometricprecision;"><title>float32[256]</title><tspan style="font-weight: bold;">bias</tspan><tspan>〈256〉</tspan></text><line class="node" x1="0" x2="102.859375" y1="0" y2="0" style="stroke: rgb(51, 51, 51); fill: none; stroke-width: 1px;"/></g><line class="node" x1="81.328125" x2="81.328125" y1="0" y2="23" style="stroke: rgb(51, 51, 51); fill: none; stroke-width: 1px;"/><path class="node border" d="M5,0h92.859375a5,5 0 0 1 5,5v47a5,5 0 0 1 -5,5h-92.859375a5,5 0 0 1 -5,-5v-47a5,5 0 0 1 5,-5z" style="stroke: rgb(51, 51, 51); fill: none; stroke-width: 1px;"/></g></g></g><g id="node-model/4" class="node" transform="translate(73.9296875,401.5)" style="opacity: 1;"><g transform="translate(-43.6953125,-11.5)"><g><g class="node-item node-item-type node-item-type-activation" transform="translate(0,0)"><path d="M5,0h60.859375a0,0 0 0 1 0,0v23a0,0 0 0 1 0,0h-60.859375a5,5 0 0 1 -5,-5v-13a5,5 0 0 1 5,-5z" style="stroke: rgb(0, 0, 0); fill: rgb(75, 27, 22); stroke-width: 0;"/><text x="6" y="16" style="font-family: -apple-system, BlinkMacSystemFont, &quot;Segoe WPC&quot;, &quot;Segoe UI&quot;, Ubuntu, &quot;Droid Sans&quot;, sans-serif, &quot;PingFang SC&quot;; font-size: 11px; text-rendering: geometricprecision; fill: rgb(255, 255, 255);">LeakyReLU</text><title>model/4</title></g><g class="node-item node-item-function" transform="translate(65.859375,0)"><path d="M0,0h16.53125a5,5 0 0 1 5,5v13a5,5 0 0 1 -5,5h-16.53125a0,0 0 0 1 0,0v-23a0,0 0 0 1 0,0z" style="stroke: rgb(0, 0, 0); fill: rgb(255, 255, 255); stroke-width: 0;"/><text x="6" y="16" style="font-family: -apple-system, BlinkMacSystemFont, &quot;Segoe WPC&quot;, &quot;Segoe UI&quot;, Ubuntu, &quot;Droid Sans&quot;, sans-serif, &quot;PingFang SC&quot;; font-size: 11px; text-rendering: geometricprecision; fill: rgb(0, 0, 0);">+</text></g><line class="node" x1="65.859375" x2="65.859375" y1="0" y2="23" style="stroke: rgb(51, 51, 51); fill: none; stroke-width: 1px;"/><path class="node border" d="M5,0h77.390625a5,5 0 0 1 5,5v13a5,5 0 0 1 -5,5h-77.390625a5,5 0 0 1 -5,-5v-13a5,5 0 0 1 5,-5z" style="stroke: rgb(51, 51, 51); fill: none; stroke-width: 1px;"/></g></g></g><g id="node-model/5" class="node" transform="translate(73.9296875,461.5)" style="opacity: 1;"><g transform="translate(-50,-28.5)"><g><g class="node-item node-item-type node-item-type-layer" transform="translate(0,0)"><path d="M5,0h73.46875a0,0 0 0 1 0,0v23a0,0 0 0 1 0,0h-78.46875a0,0 0 0 1 0,0v-18a5,5 0 0 1 5,-5z" style="stroke: rgb(0, 0, 0); fill: rgb(51, 85, 136); stroke-width: 0;"/><text x="6" y="16" style="font-family: -apple-system, BlinkMacSystemFont, &quot;Segoe WPC&quot;, &quot;Segoe UI&quot;, Ubuntu, &quot;Droid Sans&quot;, sans-serif, &quot;PingFang SC&quot;; font-size: 11px; text-rendering: geometricprecision; fill: rgb(255, 255, 255);">Linear</text><title>model/5</title></g><g class="node-item node-item-function" transform="translate(78.46875,0)"><path d="M0,0h16.53125a5,5 0 0 1 5,5v18a0,0 0 0 1 0,0h-21.53125a0,0 0 0 1 0,0v-23a0,0 0 0 1 0,0z" style="stroke: rgb(0, 0, 0); fill: rgb(255, 255, 255); stroke-width: 0;"/><text x="6" y="16" style="font-family: -apple-system, BlinkMacSystemFont, &quot;Segoe WPC&quot;, &quot;Segoe UI&quot;, Ubuntu, &quot;Droid Sans&quot;, sans-serif, &quot;PingFang SC&quot;; font-size: 11px; text-rendering: geometricprecision; fill: rgb(0, 0, 0);">+</text></g><g class="node-attribute" transform="translate(0,23)"><path d="M0,0h100a0,0 0 0 1 0,0v29a5,5 0 0 1 -5,5h-90a5,5 0 0 1 -5,-5v-29a0,0 0 0 1 0,0z" style="stroke: rgb(0, 0, 0); fill: rgb(255, 255, 255); stroke-width: 0;"/><text id="initializer-" xml:space="preserve" x="6" y="14" style="font-family: -apple-system, BlinkMacSystemFont, &quot;Segoe WPC&quot;, &quot;Segoe UI&quot;, Ubuntu, &quot;Droid Sans&quot;, sans-serif, &quot;PingFang SC&quot;; font-size: 9px; font-weight: normal; text-rendering: geometricprecision;"><title>float32[512,256]</title><tspan style="font-weight: bold;">weight</tspan><tspan>〈512×256〉</tspan></text><text id="initializer-" xml:space="preserve" x="6" y="28" style="font-family: -apple-system, BlinkMacSystemFont, &quot;Segoe WPC&quot;, &quot;Segoe UI&quot;, Ubuntu, &quot;Droid Sans&quot;, sans-serif, &quot;PingFang SC&quot;; font-size: 9px; font-weight: normal; text-rendering: geometricprecision;"><title>float32[512]</title><tspan style="font-weight: bold;">bias</tspan><tspan>〈512〉</tspan></text><line class="node" x1="0" x2="100" y1="0" y2="0" style="stroke: rgb(51, 51, 51); fill: none; stroke-width: 1px;"/></g><line class="node" x1="78.46875" x2="78.46875" y1="0" y2="23" style="stroke: rgb(51, 51, 51); fill: none; stroke-width: 1px;"/><path class="node border" d="M5,0h90a5,5 0 0 1 5,5v47a5,5 0 0 1 -5,5h-90a5,5 0 0 1 -5,-5v-47a5,5 0 0 1 5,-5z" style="stroke: rgb(51, 51, 51); fill: none; stroke-width: 1px;"/></g></g></g><g id="node-model/6" class="node" transform="translate(73.9296875,538.5)" style="opacity: 1;"><g transform="translate(-51.4296875,-28.5)"><g><g class="node-item node-item-type node-item-type-normalization" transform="translate(0,0)"><path d="M5,0h76.328125a0,0 0 0 1 0,0v23a0,0 0 0 1 0,0h-81.328125a0,0 0 0 1 0,0v-18a5,5 0 0 1 5,-5z" style="stroke: rgb(0, 0, 0); fill: rgb(51, 85, 68); stroke-width: 0;"/><text x="6" y="16" style="font-family: -apple-system, BlinkMacSystemFont, &quot;Segoe WPC&quot;, &quot;Segoe UI&quot;, Ubuntu, &quot;Droid Sans&quot;, sans-serif, &quot;PingFang SC&quot;; font-size: 11px; text-rendering: geometricprecision; fill: rgb(255, 255, 255);">BatchNorm1d</text><title>model/6</title></g><g class="node-item node-item-function" transform="translate(81.328125,0)"><path d="M0,0h16.53125a5,5 0 0 1 5,5v18a0,0 0 0 1 0,0h-21.53125a0,0 0 0 1 0,0v-23a0,0 0 0 1 0,0z" style="stroke: rgb(0, 0, 0); fill: rgb(255, 255, 255); stroke-width: 0;"/><text x="6" y="16" style="font-family: -apple-system, BlinkMacSystemFont, &quot;Segoe WPC&quot;, &quot;Segoe UI&quot;, Ubuntu, &quot;Droid Sans&quot;, sans-serif, &quot;PingFang SC&quot;; font-size: 11px; text-rendering: geometricprecision; fill: rgb(0, 0, 0);">+</text></g><g class="node-attribute" transform="translate(0,23)"><path d="M0,0h102.859375a0,0 0 0 1 0,0v29a5,5 0 0 1 -5,5h-92.859375a5,5 0 0 1 -5,-5v-29a0,0 0 0 1 0,0z" style="stroke: rgb(0, 0, 0); fill: rgb(255, 255, 255); stroke-width: 0;"/><text id="initializer-" xml:space="preserve" x="6" y="14" style="font-family: -apple-system, BlinkMacSystemFont, &quot;Segoe WPC&quot;, &quot;Segoe UI&quot;, Ubuntu, &quot;Droid Sans&quot;, sans-serif, &quot;PingFang SC&quot;; font-size: 9px; font-weight: normal; text-rendering: geometricprecision;"><title>float32[512]</title><tspan style="font-weight: bold;">weight</tspan><tspan>〈512〉</tspan></text><text id="initializer-" xml:space="preserve" x="6" y="28" style="font-family: -apple-system, BlinkMacSystemFont, &quot;Segoe WPC&quot;, &quot;Segoe UI&quot;, Ubuntu, &quot;Droid Sans&quot;, sans-serif, &quot;PingFang SC&quot;; font-size: 9px; font-weight: normal; text-rendering: geometricprecision;"><title>float32[512]</title><tspan style="font-weight: bold;">bias</tspan><tspan>〈512〉</tspan></text><line class="node" x1="0" x2="102.859375" y1="0" y2="0" style="stroke: rgb(51, 51, 51); fill: none; stroke-width: 1px;"/></g><line class="node" x1="81.328125" x2="81.328125" y1="0" y2="23" style="stroke: rgb(51, 51, 51); fill: none; stroke-width: 1px;"/><path class="node border" d="M5,0h92.859375a5,5 0 0 1 5,5v47a5,5 0 0 1 -5,5h-92.859375a5,5 0 0 1 -5,-5v-47a5,5 0 0 1 5,-5z" style="stroke: rgb(51, 51, 51); fill: none; stroke-width: 1px;"/></g></g></g><g id="node-model/7" class="node" transform="translate(73.9296875,598.5)" style="opacity: 1;"><g transform="translate(-43.6953125,-11.5)"><g><g class="node-item node-item-type node-item-type-activation" transform="translate(0,0)"><path d="M5,0h60.859375a0,0 0 0 1 0,0v23a0,0 0 0 1 0,0h-60.859375a5,5 0 0 1 -5,-5v-13a5,5 0 0 1 5,-5z" style="stroke: rgb(0, 0, 0); fill: rgb(75, 27, 22); stroke-width: 0;"/><text x="6" y="16" style="font-family: -apple-system, BlinkMacSystemFont, &quot;Segoe WPC&quot;, &quot;Segoe UI&quot;, Ubuntu, &quot;Droid Sans&quot;, sans-serif, &quot;PingFang SC&quot;; font-size: 11px; text-rendering: geometricprecision; fill: rgb(255, 255, 255);">LeakyReLU</text><title>model/7</title></g><g class="node-item node-item-function" transform="translate(65.859375,0)"><path d="M0,0h16.53125a5,5 0 0 1 5,5v13a5,5 0 0 1 -5,5h-16.53125a0,0 0 0 1 0,0v-23a0,0 0 0 1 0,0z" style="stroke: rgb(0, 0, 0); fill: rgb(255, 255, 255); stroke-width: 0;"/><text x="6" y="16" style="font-family: -apple-system, BlinkMacSystemFont, &quot;Segoe WPC&quot;, &quot;Segoe UI&quot;, Ubuntu, &quot;Droid Sans&quot;, sans-serif, &quot;PingFang SC&quot;; font-size: 11px; text-rendering: geometricprecision; fill: rgb(0, 0, 0);">+</text></g><line class="node" x1="65.859375" x2="65.859375" y1="0" y2="23" style="stroke: rgb(51, 51, 51); fill: none; stroke-width: 1px;"/><path class="node border" d="M5,0h77.390625a5,5 0 0 1 5,5v13a5,5 0 0 1 -5,5h-77.390625a5,5 0 0 1 -5,-5v-13a5,5 0 0 1 5,-5z" style="stroke: rgb(51, 51, 51); fill: none; stroke-width: 1px;"/></g></g></g><g id="node-model/8" class="node" transform="translate(73.9296875,658.5)" style="opacity: 1;"><g transform="translate(-50,-28.5)"><g><g class="node-item node-item-type node-item-type-layer" transform="translate(0,0)"><path d="M5,0h73.46875a0,0 0 0 1 0,0v23a0,0 0 0 1 0,0h-78.46875a0,0 0 0 1 0,0v-18a5,5 0 0 1 5,-5z" style="stroke: rgb(0, 0, 0); fill: rgb(51, 85, 136); stroke-width: 0;"/><text x="6" y="16" style="font-family: -apple-system, BlinkMacSystemFont, &quot;Segoe WPC&quot;, &quot;Segoe UI&quot;, Ubuntu, &quot;Droid Sans&quot;, sans-serif, &quot;PingFang SC&quot;; font-size: 11px; text-rendering: geometricprecision; fill: rgb(255, 255, 255);">Linear</text><title>model/8</title></g><g class="node-item node-item-function" transform="translate(78.46875,0)"><path d="M0,0h16.53125a5,5 0 0 1 5,5v18a0,0 0 0 1 0,0h-21.53125a0,0 0 0 1 0,0v-23a0,0 0 0 1 0,0z" style="stroke: rgb(0, 0, 0); fill: rgb(255, 255, 255); stroke-width: 0;"/><text x="6" y="16" style="font-family: -apple-system, BlinkMacSystemFont, &quot;Segoe WPC&quot;, &quot;Segoe UI&quot;, Ubuntu, &quot;Droid Sans&quot;, sans-serif, &quot;PingFang SC&quot;; font-size: 11px; text-rendering: geometricprecision; fill: rgb(0, 0, 0);">+</text></g><g class="node-attribute" transform="translate(0,23)"><path d="M0,0h100a0,0 0 0 1 0,0v29a5,5 0 0 1 -5,5h-90a5,5 0 0 1 -5,-5v-29a0,0 0 0 1 0,0z" style="stroke: rgb(0, 0, 0); fill: rgb(255, 255, 255); stroke-width: 0;"/><text id="initializer-" xml:space="preserve" x="6" y="14" style="font-family: -apple-system, BlinkMacSystemFont, &quot;Segoe WPC&quot;, &quot;Segoe UI&quot;, Ubuntu, &quot;Droid Sans&quot;, sans-serif, &quot;PingFang SC&quot;; font-size: 9px; font-weight: normal; text-rendering: geometricprecision;"><title>float32[784,512]</title><tspan style="font-weight: bold;">weight</tspan><tspan>〈784×512〉</tspan></text><text id="initializer-" xml:space="preserve" x="6" y="28" style="font-family: -apple-system, BlinkMacSystemFont, &quot;Segoe WPC&quot;, &quot;Segoe UI&quot;, Ubuntu, &quot;Droid Sans&quot;, sans-serif, &quot;PingFang SC&quot;; font-size: 9px; font-weight: normal; text-rendering: geometricprecision;"><title>float32[784]</title><tspan style="font-weight: bold;">bias</tspan><tspan>〈784〉</tspan></text><line class="node" x1="0" x2="100" y1="0" y2="0" style="stroke: rgb(51, 51, 51); fill: none; stroke-width: 1px;"/></g><line class="node" x1="78.46875" x2="78.46875" y1="0" y2="23" style="stroke: rgb(51, 51, 51); fill: none; stroke-width: 1px;"/><path class="node border" d="M5,0h90a5,5 0 0 1 5,5v47a5,5 0 0 1 -5,5h-90a5,5 0 0 1 -5,-5v-47a5,5 0 0 1 5,-5z" style="stroke: rgb(51, 51, 51); fill: none; stroke-width: 1px;"/></g></g></g><g id="node-model/9" class="node" transform="translate(73.9296875,718.5)" style="opacity: 1;"><g transform="translate(-29.5546875,-11.5)"><g><g class="node-item node-item-type node-item-type-activation" transform="translate(0,0)"><path d="M5,0h32.578125a0,0 0 0 1 0,0v23a0,0 0 0 1 0,0h-32.578125a5,5 0 0 1 -5,-5v-13a5,5 0 0 1 5,-5z" style="stroke: rgb(0, 0, 0); fill: rgb(75, 27, 22); stroke-width: 0;"/><text x="6" y="16" style="font-family: -apple-system, BlinkMacSystemFont, &quot;Segoe WPC&quot;, &quot;Segoe UI&quot;, Ubuntu, &quot;Droid Sans&quot;, sans-serif, &quot;PingFang SC&quot;; font-size: 11px; text-rendering: geometricprecision; fill: rgb(255, 255, 255);">Tanh</text><title>model/9</title></g><g class="node-item node-item-function" transform="translate(37.578125,0)"><path d="M0,0h16.53125a5,5 0 0 1 5,5v13a5,5 0 0 1 -5,5h-16.53125a0,0 0 0 1 0,0v-23a0,0 0 0 1 0,0z" style="stroke: rgb(0, 0, 0); fill: rgb(255, 255, 255); stroke-width: 0;"/><text x="6" y="16" style="font-family: -apple-system, BlinkMacSystemFont, &quot;Segoe WPC&quot;, &quot;Segoe UI&quot;, Ubuntu, &quot;Droid Sans&quot;, sans-serif, &quot;PingFang SC&quot;; font-size: 11px; text-rendering: geometricprecision; fill: rgb(0, 0, 0);">+</text></g><line class="node" x1="37.578125" x2="37.578125" y1="0" y2="23" style="stroke: rgb(51, 51, 51); fill: none; stroke-width: 1px;"/><path class="node border" d="M5,0h49.109375a5,5 0 0 1 5,5v13a5,5 0 0 1 -5,5h-49.109375a5,5 0 0 1 -5,-5v-13a5,5 0 0 1 5,-5z" style="stroke: rgb(51, 51, 51); fill: none; stroke-width: 1px;"/></g></g></g><g class="node graph-input" transform="translate(73.9296875,11.5)" style="opacity: 1;"><g transform="translate(-17.90625,-11.5)"><g><g class="node-item graph-item-input" transform="translate(0,0)"><path d="M5,0h25.8125a5,5 0 0 1 5,5v13a5,5 0 0 1 -5,5h-25.8125a5,5 0 0 1 -5,-5v-13a5,5 0 0 1 5,-5z" style="stroke: rgb(0, 0, 0); fill: rgb(238, 238, 238); stroke-width: 0;"/><text x="6" y="16" style="font-family: -apple-system, BlinkMacSystemFont, &quot;Segoe WPC&quot;, &quot;Segoe UI&quot;, Ubuntu, &quot;Droid Sans&quot;, sans-serif, &quot;PingFang SC&quot;; font-size: 11px; text-rendering: geometricprecision;">data</text></g><path class="node border" d="M5,0h25.8125a5,5 0 0 1 5,5v13a5,5 0 0 1 -5,5h-25.8125a5,5 0 0 1 -5,-5v-13a5,5 0 0 1 5,-5z" style="stroke: rgb(51, 51, 51); fill: none; stroke-width: 1px;"/></g></g></g><g class="node" transform="translate(73.9296875,771.5)" style="opacity: 1;"><g transform="translate(-27.5546875,-11.5)"><g><g class="node-item graph-item-output" transform="translate(0,0)"><path d="M5,0h45.109375a5,5 0 0 1 5,5v13a5,5 0 0 1 -5,5h-45.109375a5,5 0 0 1 -5,-5v-13a5,5 0 0 1 5,-5z" style="stroke: rgb(0, 0, 0); fill: rgb(238, 238, 238); stroke-width: 0;"/><text x="6" y="16" style="font-family: -apple-system, BlinkMacSystemFont, &quot;Segoe WPC&quot;, &quot;Segoe UI&quot;, Ubuntu, &quot;Droid Sans&quot;, sans-serif, &quot;PingFang SC&quot;; font-size: 11px; text-rendering: geometricprecision;">model/9</text></g><path class="node border" d="M5,0h45.109375a5,5 0 0 1 5,5v13a5,5 0 0 1 -5,5h-45.109375a5,5 0 0 1 -5,-5v-13a5,5 0 0 1 5,-5z" style="stroke: rgb(51, 51, 51); fill: none; stroke-width: 1px;"/></g></g></g></g></g></svg>